<svg xmlns="http://www.w3.org/2000/svg" viewBox="0 0 31.51 31.51"><defs><style>.cls-1{fill:#fff;}</style></defs><title>right0</title><g id="Layer_2" data-name="Layer 2"><g id="Layer_1-2" data-name="Layer 1"><path class="cls-1" d="M30.69,13.76,17.76.83a2.82,2.82,0,0,0-4,0L.83,13.76a2.82,2.82,0,0,0,0,4L13.76,30.69a2.84,2.84,0,0,0,4,0L30.69,17.76A2.84,2.84,0,0,0,30.69,13.76ZM21.6,12.34,18,15.08a1,1,0,0,1-1.71-.71V12.63H14.63a3,3,0,0,0-3,3v7.52c0,.55-.45.48-1,.48s-1,.07-1-.48V15.63a5,5,0,0,1,5-5H16.3V8.88A1,1,0,0,1,18,8.17l3.59,2.75A1,1,0,0,1,21.6,12.34Z"/></g></g></svg>