<svg xmlns="http://www.w3.org/2000/svg" width="33" height="16" viewBox="0 0 33 16"><g transform="translate(-1282 -195)"><circle cx="8" cy="8" r="8" transform="translate(1299 195)" fill="#273445"/><g transform="translate(1281 193)"><path d="M23,8a2.006,2.006,0,0,1-2,2,1.7,1.7,0,0,1-.51-.07l-3.56,3.55A1.766,1.766,0,0,1,17,14a2,2,0,0,1-4,0,1.766,1.766,0,0,1,.07-.52l-2.55-2.55a1.966,1.966,0,0,1-1.04,0L4.93,15.49A1.7,1.7,0,0,1,5,16a2,2,0,1,1-2-2,1.7,1.7,0,0,1,.51.07L8.07,9.52A1.766,1.766,0,0,1,8,9a2,2,0,0,1,4,0,1.766,1.766,0,0,1-.07.52l2.55,2.55a1.966,1.966,0,0,1,1.04,0l3.55-3.56A1.7,1.7,0,0,1,19,8a2,2,0,0,1,4,0Z" fill="#273445"/></g><path d="M1281.6,204.627l3.253,3.524,2.016-1.964L1290.14,203" transform="translate(20.9 -2.5)" fill="none" stroke="#04b421" stroke-linecap="round" stroke-linejoin="round" stroke-width="2"/></g></svg>