<svg xmlns="http://www.w3.org/2000/svg" width="27.599" height="15" viewBox="0 0 27.599 15"><path d="M-647.829-184h20.721a1.168,1.168,0,0,1,.825.343l0,0a1.168,1.168,0,0,1,.343.825v1.483l0,0h0l0,0h0l0,0h0l0,0h0l0,0h0l0,0h0l0,0h0l0,0h0l0,0h-.015l0,0h0l0,0h0l0,0h0l0,0h-.007l0,0h0l0,0h0l0,0h0l0,0,0,0h0l0,0h0l0,0h0l0,0h0l0,0h0l0,0,0,0h0l0,0h0l0,0h0l0,0h0l0,0h0l0,0h0l0,0h0l0,0h0l0,0h0l0,0,0,0-.225.18-.253.2-.38.3-.127.1-.316.253h-20.6v10.034a.162.162,0,0,0,.045.113.163.163,0,0,0,.113.046h20.721a.158.158,0,0,0,.112-.045l0,0a.157.157,0,0,0,.045-.112v-1.248l.017,0h0l.014,0h0l.011,0h.007l.009,0,.01,0h.006l.012,0h0l.015,0h0l.015,0h0l.014,0h0l.011,0h.006l.009,0,.009,0h.005l.011,0h0l.013,0h0l.015,0h0l.013,0h0l.011,0h.014l.008,0h.006l.011,0h0l.013,0h0l.014,0h0l.012,0h0l.01,0h.04l.012,0h0l.013,0h0l.012,0h0l.009,0h.038l.011,0h0l.012,0h.082l.011,0h.2c0,.064,0,.126.008.183v.04h0v.013l0,.013v.013h0l0,.012v.013l0,.013v0l0,.011,0,.013,0,.013v0l0,.011,0,.013,0,.012v0l0,.01,0,.013,0,.013v0l0,.01,0,.013,0,.012v0l0,.01,0,.012,0,.012v0l0,.009,0,.012,0,.012v0l0,.008,0,.012,0,.012v0l0,.008,0,.012,0,.012v0l0,.007,0,.012,0,.012,0,0,0,.007,0,.012,0,.012,0,.005,0,.006.007.023,0,.006,0,.006,0,.011,0,.012,0,.006,0,.005.011.029,0,0,0,.011,0,.011,0,.006,0,0,0,.011,0,.011,0,.008,0,0,.013.029,0,0,.011.022,0,.008v0l.006.01.005.011,0,.008,0,0v.4a1.167,1.167,0,0,1-.344.825l0,0a1.17,1.17,0,0,1-.825.344h-20.721a1.168,1.168,0,0,1-.825-.344l0,0a1.167,1.167,0,0,1-.344-.825v-12.658a1.169,1.169,0,0,1,.344-.827A1.176,1.176,0,0,1-647.829-184Zm2.167,11.2h9.1v.94h-9.1v-.94Zm0-2.6H-634.2v.94h-11.462v-.94Zm0-2.6h14.123v.94h-14.123v-.94Zm14.882,3.777a.406.406,0,0,1,.506.269.405.405,0,0,1-.268.506,1.858,1.858,0,0,0-1.212.934.466.466,0,0,0-.036.259.248.248,0,0,0,.1.148c.235.171.74.216,1.584.011.184-.045.392-.1.611-.163.254-.073.444-.129.608-.18l.291-.09c.482-.148.9-.278,1.2-.333,2.151-.4,2.625.058,2.74.676a2.072,2.072,0,0,1,.023.423c0,.187-.007.365.561.32a4.424,4.424,0,0,0,1.326-.391c.264-.108.531-.218.827-.308a.406.406,0,0,1,.506.27.405.405,0,0,1-.27.505c-.253.077-.505.181-.755.283a5.1,5.1,0,0,1-1.57.451c-1.457.115-1.446-.5-1.434-1.143a1.422,1.422,0,0,0-.01-.265c-.035-.187-.322-.3-1.8-.025-.242.045-.644.169-1.1.31l-.292.089c-.235.072-.46.14-.623.187-.2.057-.412.114-.642.17a2.77,2.77,0,0,1-2.252-.144,1.039,1.039,0,0,1-.419-.634,1.261,1.261,0,0,1,.077-.726,2.671,2.671,0,0,1,1.728-1.411Zm7.212-7.212a.462.462,0,0,0-.659-.079l-.837.658,1.771,2.263.845-.664a.484.484,0,0,0,.079-.659Zm-1.947.916,1.77,2.256-3.6,2.884-2.6.32c-.092.005-.122-.036-.1-.118l.923-2.458Zm-2.363,4.83-1.594.2c-.057,0-.076-.022-.059-.072l.566-1.508Zm1.941.369v1.616h-.6l-.016,0h-.033l-.017,0h-.017l-.017,0-.017,0h0l-.016,0-.017,0-.013,0h0l-.017,0-.017,0h-.018l-.017,0-.017,0h0l-.013,0-.017,0-.018,0-.018,0-.018,0-.013,0h0l-.018,0-.018,0h-.018v-.9l0,0h0l0,0h.006l.009,0h.006l0,0h0l0,0,0,0h0l0,0h0l.013-.007h0l0,0h0l.006,0h0l0,0,0,0h0l0,0,0,0h0l0,0,0,0h0l0,0,0,0,0,0,0,0h0l0,0,0,0,0,0h0l0,0,0,0h0l0,0,0,0h0l0,0,0,0h0l0,0,0,0h0l0,0,0,0,0,0,0,0h0l0,0,0,0,0,0h0l0,0,0,0h0l0,0,0,0h0l0,0,0,0,.828-.664Z" transform="translate(649 184)" fill="#273445" fill-rule="evenodd"/></svg>