<svg xmlns="http://www.w3.org/2000/svg" width="15.057" height="18" viewBox="0 0 15.057 18"><g transform="translate(274.608 126.18)"><path d="M-259.84-121.852l-.009-.009a1.025,1.025,0,0,0-.72-.3h-2.7v-.271a3.815,3.815,0,0,0-3.747-3.747,3.827,3.827,0,0,0-3.9,3.754v.264h-2.675a1.021,1.021,0,0,0-1.017,1.017v10.226a2.752,2.752,0,0,0,2.738,2.737h9.582a2.752,2.752,0,0,0,2.737-2.738v-10.228A1.019,1.019,0,0,0-259.84-121.852Zm-11.079,1.491a1.317,1.317,0,0,0-.408.487,1.31,1.31,0,0,0-.061,1.008,1.31,1.31,0,0,0,.669.757,1.311,1.311,0,0,0,1.008.062,1.311,1.311,0,0,0,.757-.669,1.328,1.328,0,0,0-.409-1.645v-.247h4.541v.235a1.319,1.319,0,0,0-.413.478,1.311,1.311,0,0,0-.078,1.007,1.311,1.311,0,0,0,.656.768,1.311,1.311,0,0,0,1.007.078,1.311,1.311,0,0,0,.768-.656,1.311,1.311,0,0,0,.079-1.007,1.319,1.319,0,0,0-.463-.648v-.256h2.165v9.688a1.206,1.206,0,0,1-1.185,1.189h-9.578a1.194,1.194,0,0,1-1.187-1.185v-9.691h2.135Zm1.556-2.058a2.269,2.269,0,0,1,2.219-2.216,2.271,2.271,0,0,1,1.622.628,2.251,2.251,0,0,1,.7,1.582v.264h-4.543Z" fill="#273445"/><g transform="translate(-272.32 -117.224)"><path d="M-232.581-58.839h5.26a.842.842,0,0,0,.766-.889.844.844,0,0,0-.8-.875h-5.228a.844.844,0,0,0-.8.883A.843.843,0,0,0-232.581-58.839Z" transform="translate(236.915 60.913)" fill="#273445"/><path d="M-254.941-60.41h1.328a.528.528,0,0,0,.527-.527V-62.27a.527.527,0,0,0-.526-.524h-1.332a.532.532,0,0,0-.524.527v1.33A.528.528,0,0,0-254.941-60.41Z" transform="translate(255.884 62.794)" fill="#273445"/><path d="M-255.405-38.589a.628.628,0,0,0-.44-.211.648.648,0,0,0-.464.166l-.878.89-.066-.068-.014-.013a.68.68,0,0,0-.9.009l-.023.018a.628.628,0,0,0-.223.43.647.647,0,0,0,.153.474l.527.541c.016.016.033.031.051.045l.021.025a.632.632,0,0,0,.438.212h.037a.638.638,0,0,0,.43-.168l1.392-1.419.014-.016a.683.683,0,0,0-.038-.9Z" transform="translate(258.413 42.19)" fill="#273445"/><path d="M-227.583-34.154h-5.228a.844.844,0,0,0-.8.883.842.842,0,0,0,.793.882h5.232a.843.843,0,0,0,.8-.882A.844.844,0,0,0-227.583-34.154Z" transform="translate(237.113 38.201)" fill="#273445"/></g></g></svg>