<svg xmlns="http://www.w3.org/2000/svg" width="16.2" height="18" viewBox="0 0 16.2 18"><g transform="translate(-3 -2)"><path d="M17.85,3.35,16.5,2,15.15,3.35,13.8,2,12.45,3.35,11.1,2,9.75,3.35,8.4,2,7.05,3.35,5.7,2V14.6H3v2.7A2.7,2.7,0,0,0,5.7,20H16.5a2.7,2.7,0,0,0,2.7-2.7V2ZM13.8,18.2H5.7a.9.9,0,0,1-.9-.9v-.9h9Zm3.6-.9a.9.9,0,0,1-1.8,0V14.6H7.5V4.7h9.9Z" transform="translate(0)" fill="#273445"/><rect width="6" height="1" transform="translate(8 7)" fill="#273445"/><rect width="2" height="1" transform="translate(15 7)" fill="#273445"/><rect width="6" height="2" transform="translate(8 9)" fill="#273445"/><rect width="2" height="2" transform="translate(15 9)" fill="#273445"/></g></svg>