<svg xmlns="http://www.w3.org/2000/svg" viewBox="0 0 12.91 15.29"><defs><style>.cls-1{fill:#636364;}</style></defs><g id="Layer_2" data-name="Layer 2"><g id="Layer_1-2" data-name="Layer 1"><path class="cls-1" d="M10.82,3.94,10.13,5a1.93,1.93,0,0,1,.64,1.43V12.1A1.92,1.92,0,0,1,8.85,14H3.19A1.92,1.92,0,0,1,1.27,12.1V6.44A1.93,1.93,0,0,1,3.19,4.51H8.62l1-1.17a2.92,2.92,0,0,0-.73-.09H3.19A3.19,3.19,0,0,0,0,6.44V12.1a3.19,3.19,0,0,0,3.19,3.19H8.85A3.19,3.19,0,0,0,12,12.1V6.44A3.18,3.18,0,0,0,10.82,3.94Z"/><polygon class="cls-1" points="2.48 5.95 5.7 8.82 12.91 0 5.64 11.38 2.48 5.95"/></g></g></svg>