<svg xmlns="http://www.w3.org/2000/svg" viewBox="0 0 19.09 24.88"><defs><style>.cls-1{fill:#636364;}</style></defs><g id="Layer_2" data-name="Layer 2"><g id="Layer_1-2" data-name="Layer 1"><path class="cls-1" d="M19.09,3.7,15.66,0H5.22V12.55l0-.08L1.67,14.89a.73.73,0,0,0-.22.52L.91,19.17,0,21.45l3.58,3.43,1.11-3.42,3.63-4.35H19.09ZM15.84,2l1.55,1.68H15.84ZM4.54,17.54,4.3,17,5.22,16v.83Zm4.21-1.62a1.37,1.37,0,0,0-.42-.61,1.34,1.34,0,0,0-.76-.25,1.59,1.59,0,0,0-1.09.5l-.06.06V1.2h8.22V4.83h3.25V15.92Z"/><rect class="cls-1" x="7.93" y="13.48" width="8.28" height="1.2"/><rect class="cls-1" x="7.93" y="11.21" width="8.28" height="1.2"/><rect class="cls-1" x="7.93" y="8.93" width="8.28" height="1.2"/><rect class="cls-1" x="7.93" y="6.66" width="8.28" height="1.2"/><rect class="cls-1" x="7.93" y="4.39" width="4.34" height="1.2"/></g></g></svg>