<svg xmlns="http://www.w3.org/2000/svg" viewBox="0 0 177.61 31.33"><defs><style>.cls-1{fill:#fff;}</style></defs><g id="Layer_2" data-name="Layer 2"><g id="design"><polygon class="cls-1" points="141.81 19.41 141.81 11.4 139.31 19.95 141.81 19.41"/><polygon class="cls-1" points="146.98 13.26 146.41 13.26 146.41 17.86 148.12 17.86 148.12 17.31 146.98 17.31 146.98 13.26"/><path class="cls-1" d="M151.46,17.86H152l-.86-4.6h-.62l-.86,4.6h.57l.18-1h.84Zm-.92-1.55.24-1.48c0-.1,0-.2,0-.31s0-.24.05-.39c0,.12,0,.25,0,.36a2.88,2.88,0,0,0,.05.33l.24,1.49Z"/><path class="cls-1" d="M155.57,15.25v.57l0,.52a2.18,2.18,0,0,1-.08-.24c-.09-.28-.16-.47-.2-.59l-.8-2.25H154v4.6h.52V15.33l0-.52c0,.08.07.22.14.41s.11.34.14.42l.8,2.22h.48v-4.6h-.52Z"/><path class="cls-1" d="M160.26,13.83a1.33,1.33,0,0,0-1.18-.57h-.65v4.6h.65a1.3,1.3,0,0,0,1.17-.57,3.12,3.12,0,0,0,.39-1.73A3.19,3.19,0,0,0,160.26,13.83Zm-.44,3a.77.77,0,0,1-.73.43H159V13.8h.1a.78.78,0,0,1,.73.42,3,3,0,0,1,.23,1.34A2.91,2.91,0,0,1,159.82,16.88Z"/><path class="cls-1" d="M164.21,14.56a1.43,1.43,0,0,0-.08.22q0,.12-.09.27c0-.12-.07-.22-.09-.3s0-.14-.07-.18l-.51-1.31h-.53v4.6h.53V15.17c0-.09,0-.2,0-.32s0-.27,0-.44l.71,1.74.72-1.73c0,.13,0,.26,0,.38s0,.25,0,.37v2.69h.53v-4.6h-.53Z"/><path class="cls-1" d="M168.1,13.26l-.85,4.6h.57l.17-1h.85l.17,1h.58l-.87-4.6Zm0,3,.24-1.48c0-.1,0-.2.05-.31s0-.24,0-.39c0,.12,0,.25,0,.36s0,.23.05.33l.24,1.49Z"/><path class="cls-1" d="M173.35,16.63a3.62,3.62,0,0,0-.27-.8.9.9,0,0,0-.35-.37,1,1,0,0,0,.41-.39,1.2,1.2,0,0,0,.13-.59,1.24,1.24,0,0,0-.31-.89,1.07,1.07,0,0,0-.83-.33h-.55v4.6h.56V15.75l.05,0h0c.12,0,.22.08.31.24a3.5,3.5,0,0,1,.27.79l.25,1.1h.58Zm-.78-1.58a.44.44,0,0,1-.37.16h-.06V13.79h0a.44.44,0,0,1,.39.19,1,1,0,0,1,.13.57A.88.88,0,0,1,172.57,15.05Z"/><polygon class="cls-1" points="176.66 15.52 177.46 13.26 176.83 13.26 176.19 15.5 176.19 13.26 175.62 13.26 175.62 17.86 176.19 17.86 176.19 15.6 176.98 17.86 177.61 17.86 176.66 15.52"/><path class="cls-1" d="M141.4,11.17a6.43,6.43,0,0,1-1.86.26,4.73,4.73,0,0,1-4-1.69l2.19,9.11-.39-1.6h0l-2-.27V10L132.8,9.6v8.85l5,.69h0l.62,2.58Z"/><path class="cls-1" d="M12.76,20.68c0,3.55-1.9,5.28-4.84,5.28A4.91,4.91,0,0,1,4,24.23L0,28.17a10.12,10.12,0,0,0,7.92,3.16c5.71,0,10.86-3.6,10.86-10.39V.26h-6Z"/><polygon class="cls-1" points="25.57 12.91 22.76 12.91 20.88 18.21 25.57 18.21 25.57 31.07 45.86 31.07 45.86 25.7 31.58 25.7 31.58 18.22 41.91 18.22 43.78 12.85 31.58 12.85 31.58 5.63 45.86 5.63 45.86 0.26 25.57 0.26 25.57 12.91"/><path class="cls-1" d="M63.63,13.07,60,12.55a5.38,5.38,0,0,1-2.86-1.21,3,3,0,0,1-.91-2.21C56.23,7,57.79,5.24,61,5.24a8.58,8.58,0,0,1,6.32,2.12l3.81-3.77C68.48,1,65.41,0,61.17,0,54.5,0,50.44,3.85,50.44,9.35a8.13,8.13,0,0,0,2.2,6.05,10.48,10.48,0,0,0,6,2.56l3.73.52a4.49,4.49,0,0,1,2.72,1.08,3.41,3.41,0,0,1,1,2.59c0,2.47-1.9,3.81-5.45,3.81-2.85,0-5.49-.65-7.44-2.6l-3.89,3.9c3,3.07,6.57,4.07,11.24,4.07C66.92,31.33,71.9,28,71.9,22a8.62,8.62,0,0,0-2.38-6.53C68.22,14.24,66.45,13.46,63.63,13.07Z"/><path class="cls-1" d="M93.79,20.29c0,3.55-2.12,5.67-5.37,5.67s-5.32-2.12-5.32-5.67V.26h-6V20.51c0,6.53,5,10.82,11.33,10.82S99.76,27,99.76,20.51V.26h-6Z"/><path class="cls-1" d="M124,15.45c-1.3-1.21-3.07-2-5.89-2.38l-3.63-.52a5.42,5.42,0,0,1-2.86-1.21,3,3,0,0,1-.9-2.21c0-2.12,1.55-3.89,4.76-3.89a8.55,8.55,0,0,1,6.31,2.12l3.81-3.77C123,1,119.88,0,115.64,0,109,0,104.91,3.85,104.91,9.35a8.13,8.13,0,0,0,2.2,6.05,10.51,10.51,0,0,0,6,2.56l3.72.52a4.49,4.49,0,0,1,2.72,1.08,3.41,3.41,0,0,1,1,2.59c0,2.47-1.9,3.81-5.45,3.81-2.85,0-5.49-.65-7.44-2.6l-3.89,3.9c3,3.07,6.57,4.07,11.25,4.07,6.44,0,11.42-3.38,11.42-9.35A8.62,8.62,0,0,0,124,15.45Z"/></g></g></svg>