<svg xmlns="http://www.w3.org/2000/svg" viewBox="0 0 142.67 64.52"><defs><style>.cls-1{fill:#fff;}</style></defs><g id="Layer_2" data-name="Layer 2"><g id="design"><polygon class="cls-1" points="42.11 59.73 42.11 43.2 36.02 60.85 42.11 59.73"/><polygon class="cls-1" points="54.69 47.03 53.29 47.03 53.29 56.53 57.46 56.53 57.46 55.39 54.69 55.39 54.69 47.03"/><path class="cls-1" d="M65.6,56.53H67L64.91,47H63.4l-2.09,9.5h1.4l.42-2.11h2.06Zm-2.25-3.2.59-3c0-.2.07-.41.1-.64s.08-.5.11-.81c0,.26.07.51.1.75s.08.47.12.69L65,53.33Z"/><path class="cls-1" d="M75.59,51.15c0,.42,0,.81,0,1.18s0,.72.06,1.07l-.19-.5c-.22-.57-.38-1-.49-1.22L73,47H71.87v9.5h1.28V52.47c0-.41,0-.8,0-1.17s0-.72-.06-1.06l.34.85c.16.41.27.69.34.85l1.94,4.59h1.19V47H75.59Z"/><path class="cls-1" d="M87,48.22A3.4,3.4,0,0,0,84.15,47h-1.6v9.5h1.6A3.42,3.42,0,0,0,87,55.35a5.66,5.66,0,0,0,1-3.57A5.61,5.61,0,0,0,87,48.22Zm-1.07,6.3a1.94,1.94,0,0,1-1.76.87h-.25V48.15h.25a2,2,0,0,1,1.77.87,5.27,5.27,0,0,1,.56,2.77A5.09,5.09,0,0,1,85.93,54.52Z"/><path class="cls-1" d="M96.63,49.72c-.07.14-.14.3-.21.46l-.2.55c-.09-.24-.17-.45-.24-.61s-.12-.3-.15-.38L94.57,47H93.28v9.5h1.29V51c0-.18,0-.4,0-.66s0-.55-.07-.89L96.22,53,98,49.43c0,.27,0,.54-.06.79s0,.51,0,.75v5.56h1.29V47H97.88Z"/><path class="cls-1" d="M106.1,47,104,56.53h1.4l.42-2.11h2.06l.41,2.11h1.41l-2.1-9.5Zm0,6.3.59-3c0-.2.07-.41.1-.64s.07-.5.11-.81c0,.26.07.51.1.75s.08.47.12.69l.58,3.06Z"/><path class="cls-1" d="M118.87,54a6.94,6.94,0,0,0-.66-1.65,1.89,1.89,0,0,0-.84-.75,2.29,2.29,0,0,0,1-.81,2.16,2.16,0,0,0,.32-1.22,2.37,2.37,0,0,0-.75-1.84,2.86,2.86,0,0,0-2-.69h-1.34v9.5h1.37V52.17l.13,0h.08a.94.94,0,0,1,.76.5,5.68,5.68,0,0,1,.65,1.62l.62,2.27h1.41ZM117,50.72a1.1,1.1,0,0,1-.9.35h-.13V48.13H116a1.16,1.16,0,0,1,1,.4,1.82,1.82,0,0,1,.33,1.18A1.46,1.46,0,0,1,117,50.72Z"/><polygon class="cls-1" points="126.94 51.7 128.86 47.03 127.34 47.03 125.77 51.66 125.77 47.03 124.4 47.03 124.4 56.53 125.77 56.53 125.77 51.87 127.7 56.53 129.25 56.53 126.94 51.7"/><path class="cls-1" d="M41.12,42.73a18.87,18.87,0,0,1-4.52.53c-4.44,0-8.22-1.44-9.72-3.47L32.2,58.56l-.93-3.28h0l-4.76-.56V40.23l-6.3-.75V57.74l12.17,1.44h0l1.51,5.34Z"/><path class="cls-1" d="M14.41,23.35c0,4-2.15,6-5.47,6a5.57,5.57,0,0,1-4.45-1.95L0,31.8a11.41,11.41,0,0,0,8.94,3.57c6.45,0,12.26-4.06,12.26-11.73V.29H14.41Z"/><polygon class="cls-1" points="28.87 14.57 25.7 14.57 23.57 20.56 28.87 20.56 28.87 35.07 51.78 35.07 51.78 29.02 35.66 29.02 35.66 20.57 47.31 20.57 49.43 14.51 35.66 14.51 35.66 6.35 51.78 6.35 51.78 0.29 28.87 0.29 28.87 14.57"/><path class="cls-1" d="M71.84,14.75l-4.1-.58a6.09,6.09,0,0,1-3.23-1.37,3.37,3.37,0,0,1-1-2.49c0-2.4,1.76-4.4,5.37-4.4,2.3,0,4.93.29,7.13,2.39l4.3-4.25c-3-2.88-6.45-4-11.23-4C61.53,0,56.94,4.35,56.94,10.55a9.2,9.2,0,0,0,2.49,6.84,11.84,11.84,0,0,0,6.74,2.88l4.2.59a5.1,5.1,0,0,1,3.08,1.22A3.84,3.84,0,0,1,74.53,25c0,2.79-2.15,4.3-6.16,4.3-3.22,0-6.2-.73-8.4-2.93l-4.4,4.39c3.42,3.47,7.43,4.6,12.7,4.6,7.28,0,12.9-3.81,12.9-10.55,0-3.08-.83-5.62-2.69-7.38C77,16.07,75,15.19,71.84,14.75Z"/><path class="cls-1" d="M105.89,22.91c0,4-2.4,6.4-6.06,6.4s-6-2.39-6-6.4V.29H87V23.15c0,7.38,5.67,12.22,12.8,12.22s12.8-4.84,12.8-12.22V.29h-6.74Z"/><path class="cls-1" d="M140,17.44c-1.46-1.37-3.47-2.25-6.64-2.69l-4.11-.58A6.05,6.05,0,0,1,126,12.8a3.38,3.38,0,0,1-1-2.49c0-2.4,1.76-4.4,5.38-4.4,2.29,0,4.93.29,7.13,2.39l4.3-4.25c-3-2.88-6.45-4-11.24-4C123,0,118.44,4.35,118.44,10.55a9.2,9.2,0,0,0,2.49,6.84,11.81,11.81,0,0,0,6.74,2.88l4.2.59A5.13,5.13,0,0,1,135,22.08,3.87,3.87,0,0,1,136,25c0,2.79-2.15,4.3-6.15,4.3-3.23,0-6.21-.73-8.4-2.93l-4.4,4.39c3.42,3.47,7.43,4.6,12.7,4.6,7.28,0,12.9-3.81,12.9-10.55C142.67,21.74,141.84,19.2,140,17.44Z"/></g></g></svg>