<svg xmlns="http://www.w3.org/2000/svg" viewBox="0 0 142.67 56.1"><defs><style>.cls-1{fill:#273445;}</style></defs><g id="Layer_2" data-name="Layer 2"><g id="design"><polygon class="cls-1" points="56.2 53.48 56.2 44.44 53.38 54.1 56.2 53.48"/><polygon class="cls-1" points="62.04 46.53 61.4 46.53 61.4 51.73 63.33 51.73 63.33 51.11 62.04 51.11 62.04 46.53"/><path class="cls-1" d="M67.1,51.73h.66l-1-5.19h-.7l-1,5.19h.64l.2-1.16h1Zm-1-1.75.27-1.67a3.27,3.27,0,0,0,0-.35c0-.13,0-.27.05-.44,0,.14,0,.28,0,.41s0,.26,0,.37L66.81,50Z"/><path class="cls-1" d="M71.74,48.79c0,.23,0,.44,0,.64a5.68,5.68,0,0,0,0,.59,2,2,0,0,1-.1-.28c-.1-.31-.17-.53-.22-.66l-.9-2.54H70v5.19h.6V49.51c0-.23,0-.44,0-.64l0-.58c0,.09.08.25.16.47s.12.37.16.46l.89,2.51h.55V46.54h-.59Z"/><path class="cls-1" d="M77,47.18a1.48,1.48,0,0,0-1.32-.64H75v5.19h.74A1.49,1.49,0,0,0,77,51.08a4.54,4.54,0,0,0,0-3.9Zm-.49,3.45a.88.88,0,0,1-.82.48H75.6v-4h.12a.88.88,0,0,1,.82.48,3.37,3.37,0,0,1,.26,1.52A3.31,3.31,0,0,1,76.54,50.63Z"/><path class="cls-1" d="M81.5,48c0,.08-.07.17-.1.26l-.09.3-.11-.34c0-.09-.06-.16-.07-.21l-.59-1.47H80v5.19h.59v-3c0-.1,0-.22,0-.36s0-.3,0-.49l.81,2,.81-1.95,0,.43c0,.14,0,.28,0,.41v3h.6V46.54h-.6Z"/><path class="cls-1" d="M85.89,46.54l-1,5.19h.65l.2-1.16h1l.19,1.16h.66l-1-5.19Zm0,3.44.27-1.67c0-.11,0-.22,0-.35s0-.27,0-.44c0,.14,0,.28.05.41a3.69,3.69,0,0,0,0,.37L86.61,50Z"/><path class="cls-1" d="M91.82,50.34a4.12,4.12,0,0,0-.31-.9.91.91,0,0,0-.39-.41,1.11,1.11,0,0,0,.46-.45,1.46,1.46,0,0,0,.14-.66,1.44,1.44,0,0,0-.34-1,1.24,1.24,0,0,0-.94-.37h-.62v5.19h.63V49.34h.1c.13,0,.25.09.35.27a3.11,3.11,0,0,1,.3.89l.29,1.24h.65Zm-.89-1.79a.49.49,0,0,1-.42.2h-.06V47.13h0a.51.51,0,0,1,.44.22,1.1,1.1,0,0,1,.16.65A.86.86,0,0,1,90.93,48.55Z"/><polygon class="cls-1" points="95.56 49.09 96.45 46.53 95.75 46.53 95.02 49.07 95.02 46.53 94.38 46.53 94.38 51.73 95.02 51.73 95.02 49.18 95.91 51.73 96.63 51.73 95.56 49.09"/><path class="cls-1" d="M55.75,44.18a7.4,7.4,0,0,1-2.1.29c-2.06,0-3.81-.79-4.51-1.9l2.47,10.27-.43-1.79h0L49,50.74V42.81L46,42.4v10l5.64.78h0l.7,2.92Z"/><path class="cls-1" d="M14.41,23.35c0,4-2.15,6-5.47,6a5.57,5.57,0,0,1-4.45-1.95L0,31.8a11.41,11.41,0,0,0,8.94,3.57c6.45,0,12.26-4.06,12.26-11.73V.29H14.41Z"/><polygon class="cls-1" points="28.87 14.57 25.7 14.57 23.57 20.56 28.87 20.56 28.87 35.07 51.78 35.07 51.78 29.02 35.66 29.02 35.66 20.57 47.31 20.57 49.43 14.51 35.66 14.51 35.66 6.35 51.78 6.35 51.78 0.29 28.87 0.29 28.87 14.57"/><path class="cls-1" d="M71.84,14.75l-4.1-.58a6.09,6.09,0,0,1-3.23-1.37,3.37,3.37,0,0,1-1-2.49c0-2.4,1.76-4.4,5.37-4.4,2.3,0,4.93.29,7.13,2.39l4.3-4.25c-3-2.88-6.45-4-11.23-4C61.53,0,56.94,4.35,56.94,10.55a9.2,9.2,0,0,0,2.49,6.84,11.84,11.84,0,0,0,6.74,2.88l4.2.59a5.1,5.1,0,0,1,3.08,1.22A3.84,3.84,0,0,1,74.53,25c0,2.79-2.15,4.3-6.16,4.3-3.22,0-6.2-.73-8.4-2.93l-4.4,4.39c3.42,3.47,7.43,4.6,12.7,4.6,7.28,0,12.9-3.81,12.9-10.55,0-3.08-.83-5.62-2.69-7.38C77,16.07,75,15.19,71.84,14.75Z"/><path class="cls-1" d="M105.89,22.91c0,4-2.4,6.4-6.06,6.4s-6-2.39-6-6.4V.29H87V23.15c0,7.38,5.67,12.22,12.8,12.22s12.8-4.84,12.8-12.22V.29h-6.74Z"/><path class="cls-1" d="M140,17.44c-1.46-1.37-3.47-2.25-6.64-2.69l-4.11-.58A6.05,6.05,0,0,1,126,12.8a3.38,3.38,0,0,1-1-2.49c0-2.4,1.76-4.4,5.38-4.4,2.29,0,4.93.29,7.13,2.39l4.3-4.25c-3-2.88-6.45-4-11.24-4C123,0,118.44,4.35,118.44,10.55a9.2,9.2,0,0,0,2.49,6.84,11.81,11.81,0,0,0,6.74,2.88l4.2.59A5.13,5.13,0,0,1,135,22.08,3.87,3.87,0,0,1,136,25c0,2.79-2.15,4.3-6.15,4.3-3.23,0-6.21-.73-8.4-2.93l-4.4,4.39c3.42,3.47,7.43,4.6,12.7,4.6,7.28,0,12.9-3.81,12.9-10.55C142.67,21.74,141.84,19.2,140,17.44Z"/></g></g></svg>